<?xml version="1.0" encoding="UTF-8"?>
<svg width="143px" height="43px" viewBox="0 0 143 43" version="1.1" xmlns="http://www.w3.org/2000/svg" xmlns:xlink="http://www.w3.org/1999/xlink">
    <!-- Generator: Sketch 55.2 (78181) - https://sketchapp.com -->
    <title>amazon-logo-rgb copy 3</title>
    <desc>Created with Sketch.</desc>
    <defs>
        <polygon id="path-1" points="0.0212760873 0.0333136413 68.5645814 0.0333136413 68.5645814 14.9742857 0.0212760873 14.9742857"></polygon>
        <polygon id="path-3" points="0.0269662921 0.227724138 79.679553 0.227724138 79.679553 25.6167241 0.0269662921 25.6167241"></polygon>
    </defs>
    <g id="Desktop" stroke="none" stroke-width="1" fill="none" fill-rule="evenodd">
        <g id="amazon-logo-rgb-copy-3">
            <g id="Group-3" transform="translate(21.000000, 28.000000)">
                <mask id="mask-2" fill="white">
                    <use xlink:href="#path-1"></use>
                </mask>
                <g id="Clip-2"></g>
                <path d="M67.9588077,5.98714286 C59.7296731,11.871 47.8001923,15 37.5271538,15 C23.1300385,15 10.1646731,9.84342857 0.353846154,1.25957143 C-0.416211538,0.585428571 0.270692308,-0.334714286 1.19688462,0.186857143 C11.78175,6.15514286 24.8718462,9.74957143 38.3918654,9.74957143 C47.5118077,9.74957143 57.5371538,7.91571429 66.7623654,4.12414286 C68.1534231,3.55242857 69.3197885,5.01214286 67.9588077,5.98714286" id="Fill-1" fill="#EC912D" mask="url(#mask-2)"></path>
            </g>
            <path d="M92.4949845,30.4806255 C91.5237305,29.2185551 86.0761383,29.8827373 83.628415,30.1802312 C82.8873237,30.2705567 82.7726505,29.6125895 83.4402856,29.1365163 C87.7868512,26.0372756 94.907612,26.9318292 95.7348103,27.9697434 C96.568538,29.0163586 95.515666,36.2651843 91.4437449,39.7240695 C90.8169188,40.2560782 90.2206994,39.9722574 90.4990167,39.2699562 C91.4155867,36.94594 93.4674627,31.743939 92.4949845,30.4806255" id="Fill-4" fill="#EC912D"></path>
            <path d="M82.807083,4.93881233 L82.807083,1.7967546 C82.8101237,1.31818306 83.17153,1 83.6076502,1.00129694 L97.7576656,1 C98.2102923,1 98.5734362,1.32726165 98.5734362,1.79286377 L98.5734362,4.48747658 C98.5690924,4.93967696 98.1864013,5.52892086 97.5083299,6.46531286 L90.1785568,16.8806204 C92.8986611,16.8170702 95.7768806,17.2234453 98.2493868,18.6059853 C98.8066997,18.9176837 98.9561274,19.3789626 99,19.8320277 L99,23.1850546 C99,23.6463336 98.4913379,24.1815382 97.9574816,23.9026957 C93.6027954,21.6321829 87.823334,21.384467 83.006899,23.9307962 C82.5147435,24.1914815 82,23.6644908 82,23.2019148 L82,20.0153288 C82,19.504766 82.0099908,18.6332211 82.5269062,17.8559206 L91.0186529,5.73081148 L83.6250256,5.72994685 C83.1728332,5.72994685 82.8101237,5.40960222 82.807083,4.93881233" id="Fill-5" fill="#0A0B09"></path>
            <path d="M30.2504271,25 L25.7967994,25 C25.3730082,24.9724938 25.0346044,24.6532412 25,24.2447062 L25.0035953,1.30947657 C25.0035953,0.850438296 25.3878386,0.484289889 25.8633117,0.484289889 L30.0108929,0.482937123 C30.4445711,0.505032286 30.7928618,0.834656037 30.8198263,1.25356228 L30.8198263,4.24768226 L30.9038655,4.24768226 C31.9846904,1.35186321 34.0218543,0 36.7650373,0 C39.5504645,0 41.2968618,1.35186321 42.5439675,4.24768226 C43.6252418,1.35186321 46.0781075,0 48.6972541,0 C50.5681372,0 52.6048517,0.772428845 53.8519574,2.50983009 C55.2653437,4.44112766 54.975476,7.23954764 54.975476,9.70112911 L54.9709819,24.1748133 C54.9709819,24.6324988 54.5871879,25 54.1117149,25 L49.6639295,25 C49.2163197,24.9715919 48.8648831,24.6167166 48.8648831,24.176617 L48.8635348,12.0170629 C48.8635348,11.0534432 48.9466752,8.63965946 48.7381502,7.72293568 C48.4060381,6.17762707 47.4083536,5.74293857 46.1199024,5.74293857 C45.0386281,5.74293857 43.9160084,6.46711879 43.4580622,7.62508568 C43.0014642,8.7839544 43.0428097,10.7138992 43.0428097,12.0170629 L43.0428097,24.1748133 C43.0428097,24.6324988 42.6585664,25 42.1839921,25 L37.7357573,25 C37.2881475,24.9715919 36.9358121,24.6167166 36.9358121,24.176617 L36.931318,12.0170629 C36.931318,9.45943509 37.3470199,5.69604271 34.188135,5.69604271 C30.986107,5.69604271 31.1114917,9.36293784 31.1114917,12.0170629 L31.1096941,24.1748133 C31.1096941,24.6324988 30.7250013,25 30.2504271,25" id="Fill-6" fill="#0A0B09"></path>
            <path d="M110.958183,5.59347076 C107.707594,5.59347076 107.502047,9.99539945 107.502047,12.7420154 C107.502047,15.488189 107.461142,21.3587543 110.918146,21.3587543 C114.334668,21.3587543 114.498376,16.6241706 114.498376,13.7373264 C114.498376,11.8435814 114.416077,9.57029107 113.839094,7.77121118 C113.345745,6.2079094 112.357267,5.59347076 110.958183,5.59347076 Z M110.918146,1 C117.461586,1 121,6.58789702 121,13.6895514 C121,20.5536583 117.091463,26 110.918146,26 C104.497931,26 101,20.4116606 101,13.4524463 C101,6.4450146 104.538858,1 110.918146,1 L110.918146,1 Z" id="Fill-7" fill="#0A0B09"></path>
            <path d="M130.160357,25 L125.793799,25 C125.355109,24.9715919 125.007518,24.6167166 125.007518,24.176617 L125,1.23281988 C125.037147,0.813011796 125.400658,0.484289889 125.842002,0.484289889 L129.90696,0.482937123 C130.289929,0.503679521 130.60568,0.769272393 130.686166,1.1250496 L130.686166,4.6332203 L130.76842,4.6332203 C131.996487,1.4952563 133.713215,0 136.740707,0 C138.704199,0 140.627448,0.723729303 141.85463,2.7032755 C143,4.53672306 143,7.62508568 143,9.84587497 L143,24.2785253 C142.951355,24.6843548 142.59315,25 142.160209,25 L137.767118,25 C137.361153,24.9738465 137.033904,24.6694744 136.987028,24.2785253 L136.987028,11.8258721 C136.987028,9.31559107 137.273592,5.64689225 134.2461,5.64689225 C133.1821,5.64689225 132.200354,6.37107247 131.709481,7.48079074 C131.095669,8.88090256 131.013414,10.2796616 131.013414,11.8258721 L131.013414,24.1748133 C131.005896,24.6324988 130.627349,25 130.160357,25" id="Fill-8" fill="#0A0B09"></path>
            <g id="Group-12">
                <mask id="mask-4" fill="white">
                    <use xlink:href="#path-3"></use>
                </mask>
                <g id="Clip-10"></g>
                <path d="M76.0022472,25.2442069 C75.7083146,25.5082414 75.2831461,25.5257241 74.9510112,25.3477586 C73.4719101,24.1217241 73.2067416,23.5551034 72.3973034,22.3873448 C69.952809,24.8712414 68.221573,25.6167241 65.054382,25.6167241 C61.3047191,25.6167241 58.3878652,23.3081034 58.3878652,18.6926552 C58.3878652,15.0862759 60.3465169,12.6342069 63.1375281,11.431931 C65.5537079,10.374 68.9294382,10.1816897 71.5132584,9.89210345 L71.5132584,9.31562069 C71.5132584,8.25724138 71.5964045,7.00834483 70.971236,6.09431034 C70.428764,5.2762069 69.3878652,4.94 68.4710112,4.94 C66.7721348,4.94 65.2624719,5.80786207 64.8907865,7.60724138 C64.8134831,8.00755172 64.5208989,8.40427586 64.1177528,8.42489655 L59.8004494,7.95824138 C59.4355056,7.87575862 59.0310112,7.58437931 59.1352809,7.02896552 C60.1285393,1.8052069 64.8579775,0.227724138 69.0957303,0.227724138 C71.2633708,0.227724138 74.0957303,0.803758621 75.8040449,2.43951724 C77.971236,4.459 77.7622472,7.15224138 77.7622472,10.0862069 L77.7622472,17.0057931 C77.7622472,19.088931 78.6296629,20.0016207 79.4435955,21.1227586 C79.7285393,21.528 79.7919101,22.0081034 79.428764,22.3039655 C78.5195506,23.0646897 76.9029213,24.4646552 76.0139326,25.2545172 L76.0022472,25.2442069 Z M71.5132584,14.4125172 C71.5132584,16.1446552 71.5541573,17.5858621 70.6791011,19.1256897 C69.971236,20.3750345 68.8453933,21.1451724 67.5959551,21.1451724 C65.8880899,21.1451724 64.8880899,19.846069 64.8880899,17.9225172 C64.8880899,14.139069 68.2907865,13.4514138 71.5132584,13.4514138 L71.5132584,14.4125172 L71.5132584,14.4125172 Z" id="Fill-9" fill="#0A0B09" mask="url(#mask-4)"></path>
                <path d="M17.6148315,25.2442069 C17.3208989,25.5082414 16.8948315,25.5257241 16.5626966,25.3477586 C15.0826966,24.1217241 14.8175281,23.5551034 14.0098876,22.3873448 C11.5640449,24.8712414 9.83280899,25.6167241 6.66651685,25.6167241 C2.91640449,25.6167241 0,23.3081034 0,18.6926552 C0,15.0862759 1.95775281,12.6342069 4.74966292,11.431931 C7.1658427,10.374 10.541573,10.1816897 13.1240449,9.89210345 L13.1240449,9.31562069 C13.1240449,8.25724138 13.2080899,7.00834483 12.5833708,6.09431034 C12.0408989,5.2762069 10.9991011,4.94 10.0831461,4.94 C8.38426966,4.94 6.87325843,5.80786207 6.50337079,7.60724138 C6.42606742,8.00755172 6.13303371,8.40427586 5.7294382,8.42489655 L1.41258427,7.95824138 C1.04764045,7.87575862 0.642247191,7.58437931 0.74741573,7.02896552 C1.73932584,1.8052069 6.46876404,0.227724138 10.7078652,0.227724138 C12.8746067,0.227724138 15.7078652,0.803758621 17.4161798,2.43951724 C19.5824719,4.459 19.3748315,7.15224138 19.3748315,10.0862069 L19.3748315,17.0057931 C19.3748315,19.088931 20.2413483,20.0016207 21.0552809,21.1227586 C21.3388764,21.528 21.4040449,22.0081034 21.0413483,22.3039655 C20.131236,23.0646897 18.5141573,24.4646552 17.6251685,25.2545172 L17.6148315,25.2442069 Z M13.1240449,14.4125172 C13.1240449,16.1446552 13.1658427,17.5858621 12.291236,19.1256897 C11.5833708,20.3750345 10.4579775,21.1451724 9.20764045,21.1451724 C7.50022472,21.1451724 6.49932584,19.846069 6.49932584,17.9225172 C6.49932584,14.139069 9.90292135,13.4514138 13.1240449,13.4514138 L13.1240449,14.4125172 L13.1240449,14.4125172 Z" id="Fill-11" fill="#0A0B09" mask="url(#mask-4)"></path>
            </g>
        </g>
    </g>
</svg>