<?xml version="1.0" encoding="UTF-8"?>
<svg width="159px" height="45px" viewBox="0 0 159 45" version="1.1" xmlns="http://www.w3.org/2000/svg" xmlns:xlink="http://www.w3.org/1999/xlink">
    <!-- Generator: Sketch 55.2 (78181) - https://sketchapp.com -->
    <title>Costco_Wholesale Copy 3</title>
    <desc>Created with Sketch.</desc>
    <g id="Desktop" stroke="none" stroke-width="1" fill="none" fill-rule="evenodd">
        <g id="Costco_Wholesale-Copy-3">
            <polyline id="Fill-2" fill="#DC3B41" points="82.5 13.7985724 88.4960434 13.575269 83.4667986 30 94.2220024 30 99.2521073 13.575269 105.111388 13.7985724 107.5 6 84.8886117 6 82.5 13.7985724"></polyline>
            <path d="M60.2903353,17.5640982 C58.794418,25.3401934 50.5942579,30 41.6110518,30 C32.6278458,30 26.2205614,25.3401934 27.7173346,17.5640982 C29.1824435,9.94889355 37.4775961,5 46.4214359,5 C55.3652757,5 61.7563001,9.94889355 60.2903353,17.5640982 Z M38.4720217,17.6931548 C37.9405773,20.4566886 39.8404266,22.352101 43.0830071,22.352101 C46.3238761,22.352101 48.9545682,20.4566886 49.4860125,17.6931548 C49.980658,15.1223457 48.2861978,12.9696803 44.8878639,12.9696803 C41.4903857,12.9696803 38.9666671,15.1223457 38.4720217,17.6931548 L38.4720217,17.6931548 Z" id="Fill-3" fill="#DC3B41"></path>
            <path d="M57.5,27.7828062 C60.429855,29.1645731 64.3984619,30 67.9581373,30 C74.0666551,30 80.7409437,27.1401039 81.8092569,21.3557835 C82.5679973,17.2431772 79.7884123,15.250542 75.5956321,14.4151151 L73.35472,13.9651375 C72.5976218,13.8051072 71.3470139,13.6760505 71.5128857,12.7769556 C71.6976439,11.7806381 73.0623914,11.4906907 73.9615482,11.4906907 C76.172899,11.4906907 78.0106275,12.2942836 79.5823043,13.3232956 L83.5,7.12083147 C80.9938572,5.67539663 78.1584341,5 74.9354294,5 C68.7891387,5 62.0877523,8.21351137 61.0251871,13.9651375 C60.3247481,17.7576832 63.3244007,19.7812919 67.2215678,20.3921602 L69.2235259,20.7130812 C70.1308941,20.8739718 71.4619745,20.9703342 71.2599722,22.0630141 C71.058791,23.155694 69.3820074,23.5093093 68.3703534,23.5093093 C66.0087326,23.5093093 63.9813189,22.5129917 62.3710482,21.2921155 L61.9112055,20.9385002 L57.5,27.7828062" id="Fill-4" fill="#DC3B41"></path>
            <path d="M127.5,5.99631758 C125.360475,5.35361531 122.932033,5 120.512993,5 C111.891638,5 104.055831,10.6552638 102.696723,17.7249888 C101.369243,24.6338232 106.892005,30 115.279149,30 C117.190446,30 121.225883,29.710913 123.071362,29.0355164 L125.125409,19.9740166 C123.143164,21.3557835 121.025864,22.2239047 118.568359,22.2239047 C115.368901,22.2239047 112.995165,20.1667412 113.507181,17.4995698 C114.014068,14.8650927 117.028892,12.7769556 120.22835,12.7769556 C122.646535,12.7769556 124.575783,13.9006091 126.039174,15.2187081 L127.5,5.99631758" id="Fill-5" fill="#DC3B41"></path>
            <path d="M144.421424,5 C135.47759,5 127.182442,9.94889355 125.717334,17.5640982 C124.220562,25.3401934 130.627842,30 139.611043,30 C148.594243,30 156.794398,25.3401934 158.290314,17.5640982 C159.756278,9.94889355 153.366113,5 144.421424,5 Z M142.887853,12.9696803 C146.286184,12.9696803 147.980643,15.1223457 147.485998,17.6931548 C146.954554,20.4566886 144.32472,22.352101 141.082997,22.352101 C137.840419,22.352101 135.940571,20.4566886 136.472014,17.6931548 C136.96666,15.1223457 139.490377,12.9696803 142.887853,12.9696803 L142.887853,12.9696803 Z" id="Fill-6" fill="#DC3B41"></path>
            <path d="M31.5,1.15511203 C28.8476211,0.409532215 25.8357561,0 22.8366388,0 C12.1455378,0 2.42921358,6.55994647 0.743962921,14.7604988 C-0.902194687,22.7752755 5.94588895,29 16.3463416,29 C18.7174205,29 23.7204818,28.6647781 26.0091253,27.8812174 L28.5561229,17.3696154 C26.0983594,18.9730661 23.4723259,19.9795576 20.4247672,19.9795576 C16.4585217,19.9795576 13.5137947,17.5933719 14.1494818,14.4995872 C14.7775203,11.4437833 18.5160062,9.02044245 22.4831016,9.02044245 C25.4822189,9.02044245 27.874544,10.3250007 29.6889717,11.8533155 L31.5,1.15511203" id="Fill-7" fill="#DC3B41"></path>
            <path d="M54.2850811,33 L54.6848135,39.5650628 L54.786001,39.5650628 C54.9933935,38.8941297 55.2225289,38.1936478 55.544489,37.5366201 L57.7221107,33 L61.2603278,33 L61.7955344,39.5650628 L61.8967219,39.5650628 C62.0815354,38.9228095 62.2889279,38.2518764 62.5715839,37.6243976 L64.6981937,33 L69.5,33 L63.0064392,44 L58.9798461,44 L58.6244355,38.0180928 L58.4730724,38.0180928 C58.3183643,38.587343 58.1828901,39.1418188 57.9328483,39.6815201 L55.8622679,44 L51.9368624,44 L49.5,33 L54.2850811,33" id="Fill-8" fill="#005795"></path>
            <polyline id="Fill-9" fill="#005795" points="68.5502769 33 73.0828718 33 72.3926289 36.7049064 75.2771623 36.7049064 75.9674052 33 80.5 33 78.4505752 44 73.9179804 44 74.6295271 40.1777672 71.7458458 40.1777672 71.033447 44 66.5 44 68.5502769 33"></polyline>
            <path d="M94.4047592,38.5286371 C93.7236692,41.9499234 89.9966176,44 85.9136019,44 C81.8305861,44 78.9185517,41.9499234 79.5987607,38.5286371 C80.264872,35.1772588 84.0350974,33 88.1004912,33 C92.165885,33 95.0708705,35.1772588 94.4047592,38.5286371 Z M84.4871015,38.5850689 C84.2456802,39.8013017 85.1091579,40.6351455 86.5823565,40.6351455 C88.0555551,40.6351455 89.2512073,39.8013017 89.4935097,38.5850689 C89.7181902,37.4539051 88.9481091,36.5063553 87.4035414,36.5063553 C85.8589737,36.5063553 84.7117819,37.4539051 84.4871015,38.5850689 L84.4871015,38.5850689 Z" id="Fill-10" fill="#005795"></path>
            <polyline id="Fill-11" fill="#005795" points="95.4808731 33 100.028233 33 98.6832159 40.4697796 102.5 40.4697796 101.864144 44 93.5 44 95.4808731 33"></polyline>
            <path d="M113.53691,40.0135528 L113.748069,40.1685299 C114.491416,40.7058959 115.427039,41.1438744 116.517167,41.1438744 C116.98412,41.1438744 117.757511,40.9888974 117.851073,40.5079632 C117.943777,40.0270291 117.329185,39.9849158 116.9103,39.9141654 L115.986695,39.7726646 C114.188412,39.5039816 112.804721,38.613706 113.127468,36.9451761 C113.617597,34.4141654 116.7103,33 119.54721,33 C121.033906,33 122.342918,33.2964778 123.5,33.9332312 L121.691416,36.6621746 C120.966094,36.2098775 120.118026,35.8561256 119.097425,35.8561256 C118.681974,35.8561256 118.05279,35.9833078 117.967811,36.4212864 C117.890558,36.8179939 118.467382,36.8744257 118.817597,36.9451761 L119.851931,37.1422665 C121.786695,37.5103369 123.069099,38.3871363 122.718884,40.1971669 C122.22618,42.7416539 119.145494,44 116.326609,44 C114.683691,44 112.85279,43.6327718 111.5,43.0246554 L113.53691,40.0135528" id="Fill-12" fill="#005795"></path>
            <path d="M129.006665,40.0169866 L128.810283,38.0771905 C128.757617,37.6096231 128.761188,37.1281504 128.762973,36.6614522 L128.582659,36.6614522 L127.028565,40.0169866 L129.006665,40.0169866 Z M124.715722,44 L119.5,44 L126.359974,33 L131.808677,33 L134.5,44 L129.284278,44 L129.102178,42.628585 L125.378957,42.628585 L124.715722,44 L124.715722,44 Z" id="Fill-13" fill="#005795"></path>
            <polyline id="Fill-14" fill="#005795" points="136.480873 33 141.028233 33 139.682392 40.4697796 143.5 40.4697796 142.86332 44 134.5 44 136.480873 33"></polyline>
            <polyline id="Fill-15" fill="#005795" points="145.59611 33 154.5 33 153.927383 36.0052935 149.870256 36.0052935 149.670668 37.0551473 153.375683 37.0551473 152.830956 39.9153038 149.125069 39.9153038 148.91938 40.9947065 153.116829 40.9947065 152.54334 44 143.5 44 145.59611 33"></polyline>
            <polygon id="Fill-16" fill="#005795" points="1.5 44 50.5 44 50.4966513 43.9814758 50.4564668 43.9814758 49.8361182 41 1.5 41"></polygon>
            <polygon id="Stroke-17" stroke="#005795" stroke-width="0.216" points="1.5 44 50.5 44 50.4966513 43.9814758 50.4564668 43.9814758 49.8361182 41 1.5 41"></polygon>
            <polygon id="Fill-18" fill="#005795" points="1.5 40 49.5 40 48.876428 37 1.5 37"></polygon>
            <polygon id="Stroke-19" stroke="#005795" stroke-width="0.216" points="1.5 40 49.5 40 48.876428 37 1.5 37"></polygon>
            <polygon id="Fill-20" fill="#005795" points="1.5 36 48.5 36 48.2881154 34.9682308 47.8560044 33 1.5 33"></polygon>
            <polygon id="Stroke-21" stroke="#005795" stroke-width="0.216" points="1.5 36 48.5 36 48.2881154 34.9682308 47.8560044 33 1.5 33"></polygon>
            <polyline id="Fill-22" fill="#005795" points="104.596981 33 113.5 33 112.927383 36.0052935 108.871127 36.0052935 108.670668 37.0551473 112.375683 37.0551473 111.830956 39.9153038 108.125941 39.9153038 107.91938 40.9947065 112.116829 40.9947065 111.544212 44 102.5 44 104.596981 33"></polyline>
            <polyline id="Fill-23" fill="#DC3B41" points="154.290658 30 153.799788 30 154.209979 27.5299855 153.5 27.5299855 153.587473 27 155.5 27 155.411677 27.5299855 154.701699 27.5299855 154.290658 30"></polyline>
            <polyline id="Fill-24" fill="#DC3B41" points="157.961468 30 157.466055 30 157.916514 27.4931358 157.909174 27.4931358 156.985321 30 156.465138 30 156.452294 27.4931358 156.444954 27.4931358 155.994495 30 155.5 30 156.038532 27 156.812844 27 156.847706 29.3648844 156.855046 29.3648844 157.733028 27 158.5 27 157.961468 30"></polyline>
        </g>
    </g>
</svg>