<?xml version="1.0" encoding="UTF-8"?>
<svg width="142px" height="45px" viewBox="0 0 142 45" version="1.1" xmlns="http://www.w3.org/2000/svg" xmlns:xlink="http://www.w3.org/1999/xlink">
    <!-- Generator: Sketch 55.2 (78181) - https://sketchapp.com -->
    <title>bed_bath_and_beyond copy</title>
    <desc>Created with Sketch.</desc>
    <g id="Desktop" stroke="none" stroke-width="1" fill="none" fill-rule="evenodd">
        <g id="bed_bath_and_beyond-copy">
            <path d="M141.608497,29.5071429 C141.608497,28.6376786 140.892881,27.9361607 140.024836,27.9361607 C139.156791,27.9361607 138.441175,28.6376786 138.441175,29.5071429 C138.441175,30.391875 139.156791,31.0933929 140.024836,31.0933929 C140.892881,31.0933929 141.608497,30.391875 141.608497,29.5071429" id="Fill-2" fill="#1A1919"></path>
            <path d="M141.425582,29.5071429 C141.425582,30.285 140.801424,30.9101786 140.024836,30.9101786 C139.248249,30.9101786 138.62409,30.285 138.62409,29.5224107 C138.62409,28.7445536 139.248249,28.119375 140.024836,28.119375 C140.801424,28.119375 141.425582,28.7445536 141.425582,29.5071429" id="Fill-3" fill="#FFFFFE"></path>
            <path d="M139.430362,30.3308036 L139.659006,30.3308036 L139.659006,29.5834821 L140.237435,29.5834821 C140.588023,29.5834821 140.496565,29.9033036 140.527051,30.1170536 L140.557537,30.3308036 L140.83191,30.3308036 C140.740452,30.178125 140.770938,30.1475893 140.755695,29.9185714 C140.725209,29.6140179 140.709966,29.5834821 140.542294,29.4766071 C140.709966,29.3391964 140.770938,29.2628571 140.770938,29.0346429 C140.740452,28.6376786 140.481322,28.591875 140.207751,28.591875 L139.430362,28.591875 L139.430362,30.3308036" id="Fill-4" fill="#1A1919"></path>
            <path d="M104.025831,27.7529464 L121.32496,27.7529464 C146.968395,27.7529464 146.968395,44.668125 121.32496,44.668125 L104.025831,44.668125 L104.025831,27.7529464" id="Fill-5" fill="#1A1919"></path>
            <path d="M62.986226,44.8360714 C70.3261017,44.8360714 76.3414463,40.9009821 76.3414463,36.0964286 C76.3414463,31.2766071 70.3261017,27.3567857 62.986226,27.3567857 C55.6158644,27.3567857 49.616565,31.2766071 49.616565,36.0964286 C49.616565,40.9009821 55.6158644,44.8360714 62.986226,44.8360714" id="Fill-6" fill="#1A1919"></path>
            <path d="M9.52122034,44.668125 L0.612926554,44.668125 L0.612926554,27.7529464 L8.79036158,27.7529464 C8.79036158,27.7529464 15.536565,27.5697321 15.536565,32.0544643 C15.536565,32.0544643 15.8101356,35.1353571 13.1458305,36.0353571 C13.1458305,36.0353571 16.4647797,36.9200893 16.4647797,40.0620536 C16.4647797,43.2040179 13.3736723,44.668125 9.52122034,44.668125" id="Fill-7" fill="#1A1919"></path>
            <path d="M139.902893,15.4438393 L140.862395,15.9934821 C140.862395,15.9934821 139.631729,17.7396429 137.703898,19.6175893 C139.723186,22.3111607 141.36461,24.5041071 141.36461,24.5041071 L139.704734,24.5041071 L136.746,20.5063393 C136.416271,20.7964286 136.072102,21.0841071 135.715096,21.3621429 C132.700203,23.6957143 130.370441,25.0079464 128.192305,25.0079464 C125.999729,25.0079464 122.025333,23.2079464 122.025333,19.1354464 C122.025333,15.0629464 124.75061,13.1408036 127.400475,11.3713393 C128.043887,10.9382143 128.621514,10.5661607 129.143785,10.2342857 C129.143785,10.2342857 126.700102,7.43625 126.700102,4.96526786 C126.700102,2.47901786 128.862192,0.495803571 131.268972,0.495803571 C133.690192,0.495803571 135.455966,2.73857143 135.455966,5.04160714 C135.455966,7.21526786 133.354847,8.94616071 130.959299,10.6497321 C132.128994,12.189375 134.632045,15.5209821 136.889605,18.5319643 C137.83948,17.6440179 138.843107,16.6194643 139.902893,15.4438393" id="Fill-8" fill="#1A1919"></path>
            <polyline id="Fill-9" fill="#1A1919" points="68.0115819 24.5041071 77.7421921 0.252321429 87.5185311 24.5041071 86.0110847 24.5041071 82.8590056 16.695 72.6711073 16.695 69.5495141 24.5041071 68.0115819 24.5041071"></polyline>
            <path d="M29.6065989,1.04544643 L34.9215706,1.04544643 C49.9053785,1.04544643 50.2407232,24.5041071 34.5709831,24.5041071 L29.6065989,24.5041071 L29.6065989,1.04544643" id="Fill-10" fill="#1A1919"></path>
            <path d="M61.5854802,24.5041071 L55.6920791,24.5041071 L55.6920791,1.04544643 L61.0222938,1.04544643 C61.0222938,1.04544643 66.7480226,1.04544643 66.9911073,6.75 C66.9911073,6.75 67.326452,10.4866071 64.4022147,12.0728571 C64.4022147,12.0728571 69.0472994,13.0186607 69.0472994,17.9453571 C69.0472994,22.9178571 65.1033898,24.5041071 61.5854802,24.5041071" id="Fill-11" fill="#1A1919"></path>
            <path d="M6.70368362,24.5041071 L0.811084746,24.5041071 L0.811084746,1.04544643 L6.15574011,1.04544643 C6.15574011,1.04544643 11.8814689,1.04544643 12.110113,6.75 C12.110113,6.75 12.4598983,10.4866071 9.52122034,12.0728571 C9.52122034,12.0728571 14.1959887,13.0186607 14.1959887,17.9453571 C14.1959887,22.9178571 10.2215932,24.5041071 6.70368362,24.5041071" id="Fill-12" fill="#1A1919"></path>
            <path d="M140.222994,28.7903571 C140.359379,28.7903571 140.57278,28.8208929 140.542294,29.1254464 C140.511808,29.3544643 140.374621,29.385 140.222994,29.385 L139.659006,29.385 L139.659006,28.7903571 L140.222994,28.7903571" id="Fill-13" fill="#FFFFFE"></path>
            <path d="M117.624136,39.54375 L119.436441,39.54375 C129.273751,39.54375 129.273751,33.0155357 119.436441,33.0155357 L117.624136,33.0155357 L117.624136,39.54375" id="Fill-14" fill="#FFFFFE"></path>
            <path d="M76.6310621,27.7529464 L85.7214689,27.7529464 L93.7777627,36.736875 C94.2190056,37.209375 94.6754915,37.0872321 94.371435,36.3704464 C94.0665763,35.6383929 93.8387345,34.1132143 93.8387345,34.1132143 L93.8387345,27.7529464 L102.761469,27.7529464 L102.761469,44.668125 L93.8082486,44.668125 L85.6757401,36.0353571 C85.2344972,35.5467857 84.777209,35.6689286 85.0820678,36.4009821 C85.3716836,37.1177679 85.5233107,38.6590179 85.5233107,38.6590179 L85.5233107,44.668125 L76.6310621,44.668125 L76.6310621,27.7529464" id="Fill-15" fill="#1A1919"></path>
            <path d="M62.986226,32.7559821 C65.498904,32.7559821 67.5398531,34.250625 67.5398531,36.0964286 C67.5398531,37.9261607 65.498904,39.436875 62.986226,39.436875 C60.473548,39.436875 58.4181582,37.9261607 58.4181582,36.0964286 C58.4181582,34.250625 60.473548,32.7559821 62.986226,32.7559821" id="Fill-16" fill="#FFFFFE"></path>
            <polyline id="Fill-17" fill="#1A1919" points="17.5309831 27.7529464 39.8097401 27.7529464 42.4435593 32.5422321 44.9562373 27.7529464 54.2303616 27.7529464 46.3730282 37.4689286 46.3730282 44.668125 38.4081921 44.668125 38.4081921 37.2246429 31.0378305 28.4086607 31.0378305 32.34375 24.8403729 32.34375 24.8403729 34.0063393 30.5356158 34.0063393 30.5356158 38.3536607 24.8403729 38.3536607 24.8403729 40.0773214 31.3426893 40.0773214 31.3426893 44.668125 17.5309831 44.668125 17.5309831 27.7529464"></polyline>
            <path d="M6.77989831,34.3727679 L8.37880226,34.3727679 C10.0844068,34.3727679 10.0844068,31.8101786 8.37880226,31.8101786 L6.77989831,31.8101786 L6.77989831,34.3727679" id="Fill-18" fill="#FFFFFE"></path>
            <path d="M6.77989831,37.895625 L8.60744633,37.895625 C10.9981808,37.895625 10.9981808,40.6872321 8.60744633,40.6872321 L6.77989831,40.6872321 L6.77989831,37.895625" id="Fill-19" fill="#FFFFFE"></path>
            <path d="M135.927695,19.4014286 L129.966102,11.3464286 C127.812034,12.8450893 127.183864,13.2324107 126.121672,14.0408036 C124.994497,14.9255357 123.410836,16.2369643 123.410836,18.7384821 C123.410836,21.24 125.390814,23.4972321 127.978904,23.4972321 C129.882667,23.4972321 132.526113,22.3682143 135.927695,19.4014286" id="Fill-20" fill="#FFFFFE"></path>
            <path d="M130.161853,9.58901786 C131.247311,8.89714286 132.047164,8.35473214 132.700203,7.66526786 C133.796893,6.50571429 133.979006,5.77366071 133.979006,5.04160714 C133.979006,4.32482143 133.507277,1.99125 131.101299,1.99125 C128.680079,1.99125 128.131333,4.14160714 128.131333,5.22482143 C128.131333,6.20357143 128.745864,7.63071429 130.161853,9.58901786" id="Fill-21" fill="#FFFFFE"></path>
            <polyline id="Fill-22" fill="#1A1919" points="99.2291186 10.929375 113.512554 10.929375 113.512554 1.04544643 114.868373 1.04544643 114.868373 24.5041071 113.512554 24.5041071 113.512554 12.3934821 99.2291186 12.3934821 99.2291186 24.5041071 97.8732994 24.5041071 97.8732994 1.04544643 99.2291186 1.04544643 99.2291186 10.929375"></polyline>
            <polyline id="Fill-23" fill="#1A1919" points="82.9047345 1.04544643 96.396339 1.04544643 96.396339 2.37214286 90.3208249 2.37214286 90.3208249 24.5041071 88.9650056 24.5041071 88.9650056 2.37214286 82.9047345 2.37214286 82.9047345 1.04544643"></polyline>
            <polyline id="Fill-24" fill="#FFFFFE" points="82.3102599 15.3369643 77.7421921 3.97366071 73.2046102 15.3369643 82.3102599 15.3369643"></polyline>
            <path d="M31.1750169,2.50955357 L34.7081695,2.50955357 C48.1235593,2.50955357 47.9262034,22.9941964 34.7081695,22.9941964 L31.1750169,22.9941964 L31.1750169,2.50955357" id="Fill-25" fill="#FFFFFE"></path>
            <polyline id="Fill-26" fill="#1A1919" points="16.0082938 1.04544643 27.1701356 1.04544643 27.1701356 2.50955357 17.4395254 2.50955357 17.4395254 11.03625 26.8957627 11.03625 26.8957627 12.3934821 17.4395254 12.3934821 17.4395254 23.0552679 27.1701356 23.0552679 27.1701356 24.5041071 16.0082938 24.5041071 16.0082938 1.04544643"></polyline>
            <path d="M57.0021695,2.47901786 L60.9308362,2.47901786 C67.1130508,2.47901786 67.1282938,11.7072321 60.9308362,11.7072321 L57.0021695,11.7072321 L57.0021695,2.47901786" id="Fill-27" fill="#FFFFFE"></path>
            <path d="M2.12037288,2.47901786 L6.04903955,2.47901786 C12.2320565,2.47901786 12.2472994,11.7072321 6.04903955,11.7072321 L2.12037288,11.7072321 L2.12037288,2.47901786" id="Fill-28" fill="#FFFFFE"></path>
            <path d="M57.0326554,13.2171429 L62.2553672,13.2171429 C69.5952429,13.2171429 69.3970847,23.04 62.057209,23.04 L57.0326554,23.04 L57.0326554,13.2171429" id="Fill-29" fill="#FFFFFE"></path>
            <path d="M2.16610169,13.2171429 L7.37357062,13.2171429 C14.7294915,13.2171429 14.5313333,23.04 7.17621469,23.04 L2.16610169,23.04 L2.16610169,13.2171429" id="Fill-30" fill="#FFFFFE"></path>
        </g>
    </g>
</svg>