<?xml version="1.0" encoding="UTF-8"?>
<svg width="176px" height="41px" viewBox="0 0 176 41" version="1.1" xmlns="http://www.w3.org/2000/svg" xmlns:xlink="http://www.w3.org/1999/xlink">
    <!-- Generator: Sketch 55.2 (78181) - https://sketchapp.com -->
    <title>wmt_h_r_4c copy 3</title>
    <desc>Created with Sketch.</desc>
    <g id="Desktop" stroke="none" stroke-width="1" fill="none" fill-rule="evenodd">
        <g id="wmt_h_r_4c-copy-3">
            <path d="M96.3310709,25.4590999 C96.3310709,25.7769601 96.3016564,26.1047269 96.2098475,26.391452 C95.8316187,27.5847721 94.5341126,28.5932635 92.9118586,28.5932635 C91.559089,28.5932635 90.4847171,27.8621568 90.4847171,26.3153128 C90.4847171,23.9493348 93.2187796,23.2952165 96.3310709,23.310501 L96.3310709,25.4590999 Z M101.213877,21.3368242 C101.213877,17.4333428 99.4638633,14 93.5500641,14 C90.5135374,14 88.1033314,14.8126238 86.7879984,15.5360883 L87.7509517,18.6730824 C88.9524893,17.9507501 90.8688882,17.3526748 92.6812965,17.3526748 C95.681278,17.3453156 96.1733023,18.9699972 96.1733023,20.0118879 L96.1733023,20.2584206 C89.6325881,20.2490801 85.5,22.4053213 85.5,26.801019 C85.5,29.4848571 87.6047706,32 91.2643498,32 C93.514113,32 95.3975321,31.1443532 96.5238993,29.7735635 L96.6353178,29.7735635 C96.6353178,29.7735635 97.3822677,32.7503538 101.5,31.6119445 C101.283402,30.3730541 101.213877,29.0523634 101.213877,27.4613643 L101.213877,21.3368242 L101.213877,21.3368242 Z" id="Fill-1" fill="#0072AD"></path>
            <path d="M0.5,9 C0.5,9 4.76099631,26.2830169 5.44098981,29.0884425 C6.23476,32.3628076 7.66496855,33.5675628 11.7884847,32.7549102 L14.4494963,22.0388063 C15.1238602,19.3770833 15.5763003,17.4799164 16.0097777,14.7724432 L16.0859251,14.7724432 C16.3905148,17.506604 16.8245847,19.3855881 17.3795424,22.0484842 C17.3795424,22.0484842 18.462495,26.9126687 19.0171563,29.4676412 C19.5732992,32.021734 21.1208399,33.6312025 25.1599125,32.7549102 L31.5,9 L26.3812341,9 L24.2165141,19.2700395 C23.6345937,22.2593457 23.106895,24.5955385 22.6997878,27.3302858 L22.6271959,27.3302858 C22.2568291,24.6219328 21.7863151,22.3792933 21.194617,19.466824 L18.9407126,9 L13.6077266,9 L11.1970829,19.2031738 C10.5141265,22.3036295 9.87502151,24.8069865 9.46880317,27.4490604 L9.39561868,27.4490604 C8.97962266,24.9609535 8.42525758,21.8147476 7.82526332,18.8134174 C7.82526332,18.8134174 6.39298071,11.515381 5.890467,9 L0.5,9" id="Fill-2" fill="#0072AD"></path>
            <path d="M42.3313772,25.4590999 C42.3313772,25.7769601 42.3025553,26.1047269 42.2101471,26.391452 C41.8318972,27.5847721 40.5343188,28.5932635 38.9119744,28.5932635 C37.5594265,28.5932635 36.4849948,27.8621568 36.4849948,26.3153128 C36.4849948,23.9493348 39.2189125,23.2952165 42.3313772,23.310501 L42.3313772,25.4590999 Z M47.2135641,21.3368242 C47.2135641,17.4333428 45.4637498,14 39.5505126,14 C36.5132224,14 34.1022879,14.8126238 32.7880701,15.5360883 L33.7498886,18.6730824 C34.9526816,17.9507501 36.8674045,17.3526748 38.6808052,17.3526748 C41.6830337,17.3453156 42.174194,18.9699972 42.174194,20.0118879 L42.174194,20.2584206 C35.632224,20.2490801 31.5,22.4053213 31.5,26.801019 C31.5,29.4848571 33.6036993,32 37.2614025,32 C39.5130738,32 41.3960036,31.1443532 42.5245134,29.7735635 L42.6350468,29.7735635 C42.6350468,29.7735635 43.3826326,32.7503538 47.5,31.6119445 C47.2836874,30.3730541 47.2135641,29.0523634 47.2135641,27.4613643 L47.2135641,21.3368242 L47.2135641,21.3368242 Z" id="Fill-3" fill="#0072AD"></path>
            <polyline id="Fill-4" fill="#0072AD" points="54.5 27.9042963 54.5 9 50.5 9 50.5 33 54.5 33 54.5 27.9042963"></polyline>
            <path d="M117.5,9 C117.5,11.2641949 117.5,26.410205 117.5,26.410205 C117.5,28.8104673 118.007775,30.4922242 119.093714,31.5195761 C120.042478,32.4181447 121.605091,33 123.477738,33 C125.069815,33 126.636356,32.7310704 127.374611,32.4863241 L127.305205,28.7414138 C126.755852,28.8617475 126.123997,28.9578978 125.259699,28.9578978 C123.425356,28.9578978 122.810198,27.91219 122.810198,25.7569654 L122.810198,19.0963689 L127.5,19.0963689 L127.5,14.5807991 L122.810198,14.5807991 L122.810198,9 L117.5,9" id="Fill-5" fill="#0072AD"></path>
            <path d="M105.5,14.3971843 L105.5,32 L110.260141,32 L110.260141,22.9865484 C110.260141,22.5002652 110.288756,22.0761776 110.363379,21.6873825 C110.715452,19.7992382 112.11617,18.5923533 114.126213,18.5923533 C114.678028,18.5923533 115.072743,18.6539704 115.5,18.7176125 L115.5,14.1090594 C115.141755,14.0344246 114.896847,14 114.451074,14 C112.674718,14 110.653734,15.1825852 109.805392,17.717275 L109.676065,17.717275 L109.676065,14.3971843 L105.5,14.3971843" id="Fill-6" fill="#0072AD"></path>
            <path d="M57.5,14.3971843 L57.5,32 L62.2334926,32 L62.2334926,21.676679 C62.2334926,21.1927101 62.2884567,20.6812593 62.455639,20.2360542 C62.8478304,19.1966636 63.8045484,17.980811 65.3323773,17.980811 C67.242378,17.980811 68.1361164,19.6126513 68.1361164,21.9676968 L68.1361164,32 L72.8647424,32 L72.8647424,21.5519985 C72.8647424,21.0900149 72.9274358,20.5337255 73.0619832,20.1252591 C73.4507394,18.9429632 74.4821741,17.980811 75.902365,17.980811 C77.8387028,17.980811 78.768225,19.5840123 78.768225,22.3550456 C78.768225,22.3550456 78.768225,29.7910419 78.768225,32 L83.5,32 L83.5,21.6327082 C83.5,16.1649872 80.7529425,14 77.6514815,14 C76.2779527,14 75.1938441,14.3480064 74.2136518,14.9560773 C73.3897636,15.4669495 72.652043,16.1927583 72.0073605,17.1485464 L71.9375103,17.1485464 C71.1891977,15.2514344 69.4294892,14 67.136744,14 C64.1901556,14 62.866438,15.5088954 62.0634476,16.7889687 L61.9933112,16.7889687 L61.9933112,14.3971843 L57.5,14.3971843" id="Fill-7" fill="#0072AD"></path>
            <path d="M151.995283,14 C152.852201,14 153.557652,13.4943923 153.65304,12.8389197 L154.5,1.95896912 C154.5,0.883398242 153.392034,0 151.997904,0 C150.606394,0 149.5,0.883398242 149.5,1.95896912 L150.345126,12.8389197 C150.438417,13.4943923 151.144654,14 151.998428,14 L151.995283,14" id="Fill-8" fill="#F3B53C"></path>
            <path d="M146.154068,16.8668193 C146.643563,16.0050563 146.60568,15.0357632 146.090532,14.6059478 L137.137035,8.19313888 C136.206964,7.64299956 134.810367,8.30523814 134.018106,9.70800202 C133.22346,11.1089382 133.364253,12.6746725 134.294025,13.2238979 L144.206825,17.9378547 C144.827568,18.1736287 145.671135,17.7221855 146.157647,16.860727 L146.154068,16.8668193" id="Fill-9" fill="#F3B53C"></path>
            <path d="M157.840649,16.860727 C158.328977,17.7221855 159.169903,18.1736287 159.790678,17.9378547 L169.705487,13.2238979 C170.639186,12.6746725 170.773126,11.1089382 169.983807,9.70800202 C169.187926,8.30523814 167.789764,7.64299956 166.861434,8.19313888 L157.907172,14.6059478 C157.39498,15.0357632 157.357095,16.0050563 157.844229,16.8668193 L157.840649,16.860727" id="Fill-10" fill="#F3B53C"></path>
            <path d="M151.995283,27 C152.852201,27 153.557652,27.5036507 153.65304,28.1583967 L154.5,39.0405305 C154.5,40.1181642 153.392034,41 151.997904,41 C150.606394,41 149.5,40.1181642 149.5,39.0405305 L150.345126,28.1583967 C150.438417,27.5036507 151.144654,27 151.998428,27 L151.995283,27" id="Fill-11" fill="#F3B53C"></path>
            <path d="M157.840649,24.1366306 C158.328977,23.273536 159.169903,22.8250803 159.790678,23.063627 L169.705487,27.7727175 C170.639186,28.3244522 170.773126,29.8910009 169.983807,31.2936438 C169.187926,32.6920216 167.789764,33.3564795 166.861434,32.8080961 L157.907172,26.3996263 C157.39498,25.9645754 157.357095,24.9957647 157.844229,24.1348027 L157.840649,24.1366306" id="Fill-12" fill="#F3B53C"></path>
            <path d="M146.154068,24.1348027 C146.643563,24.9957647 146.60568,25.9645754 146.090532,26.3996263 L137.137035,32.8080961 C136.206964,33.3564795 134.810367,32.6920216 134.018106,31.2936438 C133.22346,29.8910009 133.364253,28.3244522 134.294025,27.7727175 L144.206825,23.063627 C144.827568,22.8250803 145.671135,23.273536 146.158244,24.1366306 L146.154068,24.1348027" id="Fill-13" fill="#F3B53C"></path>
            <path d="M173.736523,31.4344959 L173.930426,31.4344959 C174.142111,31.4344959 174.326701,31.3685619 174.326701,31.1816531 C174.326701,31.0314381 174.235253,30.9279503 173.958086,30.9279503 C173.847728,30.9279503 173.783376,30.9374104 173.736523,30.9468705 L173.736523,31.4344959 Z M173.736523,32.3154324 L173.450889,32.3154324 L173.450889,30.7505017 C173.607254,30.722408 173.773215,30.7034878 173.986029,30.7034878 C174.244567,30.7034878 174.373553,30.7505017 174.474598,30.8247492 C174.567739,30.8903966 174.630962,31.0125179 174.630962,31.1535595 C174.630962,31.3505017 174.493791,31.4720497 174.326701,31.528237 L174.326701,31.5471572 C174.465848,31.6030578 174.539515,31.7251792 174.585803,31.922408 C174.630962,32.1652174 174.659752,32.2592451 174.696726,32.3154324 L174.401214,32.3154324 C174.354925,32.2592451 174.318515,32.1187769 174.280977,31.9032011 C174.244567,31.7346393 174.142111,31.6595318 173.921112,31.6595318 L173.736523,31.6595318 L173.736523,32.3154324 Z M173.995343,30.2620162 C173.330652,30.2620162 172.82289,30.8152891 172.82289,31.4901099 C172.82289,32.1849976 173.330652,32.727377 174.013689,32.727377 C174.678944,32.7379838 175.167513,32.1849976 175.167513,31.5001433 C175.167513,30.8152891 174.678944,30.2620162 174.004939,30.2620162 L173.995343,30.2620162 Z M174.013689,30 C174.844341,30 175.5,30.6561873 175.5,31.4901099 C175.5,32.3438127 174.844341,33 174.004939,33 C173.164691,33 172.5,32.3438127 172.5,31.4901099 C172.5,30.6561873 173.164691,30 174.004939,30 L174.013689,30 L174.013689,30 Z" id="Fill-14" fill="#F3B53C"></path>
        </g>
    </g>
</svg>