<?xml version="1.0" encoding="UTF-8"?>
<svg width="118px" height="57px" viewBox="0 0 118 57" version="1.1" xmlns="http://www.w3.org/2000/svg" xmlns:xlink="http://www.w3.org/1999/xlink">
    <!-- Generator: Sketch 55.2 (78181) - https://sketchapp.com -->
    <title>ped egg logo copy 3</title>
    <desc>Created with Sketch.</desc>
    <g id="Desktop" stroke="none" stroke-width="1" fill="none" fill-rule="evenodd">
        <g id="ped-egg-logo-copy-3" fill="#0089BD">
            <path d="M49.962462,5.5489989 C49.7866653,7.31553243 47.8465086,9.17852043 46.1089976,8.98628597 C44.3721258,8.79405151 42.8308679,6.63360597 43.014975,4.78073556 C43.1997214,2.92719065 44.2123106,-0.288183652 47.0001272,0.0207405001 C49.7879438,0.328990145 50.1376195,3.78246538 49.962462,5.5489989" id="Fill-1"></path>
            <path d="M55.9026138,7.53643621 C55.6475178,8.90107403 53.8848463,10.2267222 52.4190899,9.96723934 C50.9526364,9.70910096 49.7698553,7.93036615 50.038194,6.49917702 C50.3044417,5.06933237 51.3596748,2.63046242 53.7119944,3.04724836 C56.0657079,3.46403429 56.1570128,6.1738151 55.9026138,7.53643621" id="Fill-3"></path>
            <path d="M60.9348111,10.2403924 C60.7646018,11.2147055 59.5893758,12.1622996 58.6120256,11.976509 C57.6346755,11.7919612 56.8467808,10.5212531 57.0254104,9.49971565 C57.202837,8.47817821 57.9065292,6.73709067 59.4744996,7.03348565 C61.0436729,7.33174476 61.1050204,9.2673221 60.9348111,10.2403924" id="Fill-4"></path>
            <path d="M64.8748808,13.3777377 C64.6433598,14.341863 63.417469,15.2088285 62.4614694,14.9553974 C61.5035186,14.7019662 60.8050536,13.373661 61.048931,12.3626543 C61.2915078,11.3502887 62.1005307,9.65440639 63.6359833,10.0620704 C65.1720862,10.4697344 65.1070522,12.4136123 64.8748808,13.3777377" id="Fill-5"></path>
            <path d="M67.9510276,16.5920093 C67.8234143,17.371199 66.9423326,18.1288566 66.2090137,17.9814969 C65.476916,17.8327915 64.8852541,16.8167497 65.0189734,15.9992061 C65.152082,15.1823354 65.679632,13.7888106 66.8562393,14.0270085 C68.0334573,14.2645335 68.078641,15.8128197 67.9510276,16.5920093" id="Fill-6"></path>
            <path d="M50.10759,11.2044374 C45.2147077,9.75273158 42.727675,16.3322992 44.6522259,21.4556645 C46.5761325,26.5777451 54.4089967,26.1036925 50.257714,38.0609951 C48.2919273,43.7226478 47.3615452,48.4586775 48.0793054,51.4565143 C48.8756713,54.7902989 51.5650169,56.0961918 54.0430292,56.7623063 C58.749062,58.0277313 61.9983122,54.053526 62.646487,49.2776708 C63.2946618,44.502458 59.2902815,40.7203146 60.9893243,30.8628467 C61.6652044,26.9445257 74.595197,18.46939 50.10759,11.2044374" id="Fill-7"></path>
            <path d="M7.53819605,35.2843752 C9.69737784,35.2843752 11.2504735,33.1231239 11.2504735,29.3700037 C11.2504735,25.8437516 9.69737784,23.8714519 7.31091376,23.8714519 C6.02298077,23.8714519 5.90933962,24.4408342 5.90933962,25.7300016 L5.90933962,32.8962557 C5.90933962,34.4881247 6.06086115,35.2843752 7.53819605,35.2843752 Z M1.55309567,24.2512507 C0.909129172,24.0237506 0.0757607643,24.2127021 0.0757607643,23.5302017 C0.0757607643,23.2275001 0.378803822,23.0758334 0.947009554,23.0758334 C1.36369376,23.0758334 1.93189949,23.1137501 2.57586599,23.1137501 C3.4092344,23.1137501 5.03809083,23 7.42455491,23 C12.4626457,23 15,25.2370846 15,29.6727053 C15,33.6918742 12.3104929,36.5362578 8.93913885,36.5362578 C7.53819605,36.5362578 6.66694726,36.0806256 6.3639042,36.0806256 C5.94722,36.0806256 5.90933962,36.3845911 5.90933962,36.9527095 C5.90933962,37.0285428 5.90933962,37.1043762 5.90933962,37.2181263 L5.90933962,44.0431302 C5.90933962,44.9910474 5.94722,45.5597978 6.5911865,45.7493812 C7.31091376,45.9768814 8.03064102,45.901048 8.03064102,46.5456317 C8.03064102,46.8110485 7.80335873,46.9627153 7.31091376,46.9627153 C7.0078707,46.9627153 6.02298077,46.8868819 4.31836357,46.8868819 C2.87890904,46.8868819 1.74249758,47 1.0606507,47 C0.34092344,47 0,46.8868819 0,46.4697983 C0,46.0520828 0.568205733,46.1285481 1.09853108,45.9389647 C2.15918178,45.5977145 2.19706217,44.9531308 2.19706217,43.8535468 L2.19706217,25.8816683 C2.19706217,25.0095845 2.15918178,24.4781189 1.55309567,24.2512507 L1.55309567,24.2512507 Z" id="Fill-8"></path>
            <path d="M19.9482351,31.5176852 C19.0841432,32.9332275 18.6520973,34.6247973 18.6520973,35.4902516 C18.6520973,36.2376894 19.0841432,36.4343835 20.2624503,36.4343835 C23.993756,36.4343835 24.8578478,36.1203285 24.8578478,33.9166983 C24.8578478,31.3596742 23.7973715,29.8261155 22.4226799,29.8261155 C21.4407573,29.8261155 20.6552193,30.3762035 19.9482351,31.5176852 Z M21.2836497,37.3004935 C20.6552193,37.3004935 20.1838965,37.3004935 19.8304044,37.3004935 C18.7306511,37.3004935 18.5342666,37.4178543 18.5342666,38.5980193 C18.5342666,43.2400014 20.4195579,46.0330584 23.2082179,46.0330584 C24.4650788,46.0330584 25.5255552,45.520998 26.389647,44.5375272 C27.0180774,43.790745 27.0180774,42.8859519 27.607231,42.8859519 C27.8821693,42.8859519 28,43.0826461 28,43.3973567 C28,45.1682598 25.5255552,48 21.990634,48 C18.0629438,48 15,44.2234722 15,38.9127299 C15,32.9725663 18.1022207,29 22.3441261,29 C25.6826628,29 27.8821693,31.4776907 27.8821693,35.7656234 C27.8821693,37.182477 27.8036155,37.3004935 26.3110932,37.3004935 C25.9183242,37.3004935 25.4077245,37.3004935 24.779294,37.3004935 L21.2836497,37.3004935 L21.2836497,37.3004935 Z" id="Fill-9"></path>
            <path d="M39.1646604,36.0551259 C39.1646604,32.1769201 38.4683361,30.2772456 36.4592375,30.2772456 C34.2176014,30.2772456 32.6329965,32.9525612 32.6329965,38.0330109 C32.6329965,43.0746785 34.1789525,45.7506406 36.5365353,45.7506406 C38.5076291,45.7506406 39.1646604,44.2381403 39.1646604,41.368268 L39.1646604,36.0551259 Z M38.5076291,23.0631363 C37.9665445,22.9474365 37.5414067,23.0250006 37.5414067,22.7147441 C37.5414067,22.1330132 38.3916824,22.1717953 39.3579049,21.6676285 C41.1744032,20.6980771 41.8314344,20 42.0246789,20 C42.2172793,20 42.2945771,20.1551282 42.2945771,20.4653847 L42.2945771,43.8503197 C42.2945771,44.9362174 42.4498168,45.4403841 43.0295503,45.4403841 C43.7252305,45.4403841 43.9957728,43.6564094 44.6141552,43.6564094 C44.8067555,43.6564094 45,43.8891018 45,44.1605762 C45,45.4403841 44.691453,46.022115 44.0337775,46.4487177 C42.372519,47.5346153 40.9805145,48 40.5173719,48 C40.1308829,48 39.7051008,47.6121794 39.6284472,47.1080127 C39.5125005,46.2548074 39.5511494,45.8669868 38.8941181,45.8669868 C38.4683361,45.8669868 37.9278956,46.4099356 36.9616732,47.1467947 C36.4592375,47.5346153 35.6476106,47.8060897 34.8746326,47.8060897 C31.8213696,47.8060897 29,44.2381403 29,38.8480805 C29,33.1464715 32.3238053,29.2682657 35.7635573,29.2682657 C36.9616732,29.2682657 38.0438423,29.6567326 39.2033093,30.3929454 L39.0867185,24.1884623 C39.0867185,23.3740391 39.0487137,23.1801288 38.5076291,23.0631363 L38.5076291,23.0631363 Z" id="Fill-10"></path>
            <path d="M81.2820857,27.9368391 C81.2820857,28.0121575 81.2820857,28.1267175 81.2820857,28.2026688 C81.2820857,28.6583771 81.2443008,28.8862312 80.9042361,28.8862312 C80.2618918,28.8862312 80.2241068,27.8608877 79.5817625,26.6070571 C78.6371384,24.6709301 77.4280196,23.9873678 75.085352,23.9873678 C73.2716739,23.9873678 72.894454,24.3664917 72.894454,25.6203223 L72.894454,32.6451911 C72.894454,33.1008993 73.196104,33.252802 73.8762333,33.252802 L74.8208573,33.252802 C76.2944708,33.252802 77.2390948,32.9489965 77.7680843,32.1515072 C78.3726437,31.2780664 78.1837189,30.0628445 78.8638482,30.0628445 C79.2416978,30.0628445 79.2416978,30.2527229 79.2416978,30.7464068 L79.2416978,36.8991007 C79.2416978,37.582663 79.1661279,37.961787 78.7882783,37.961787 C78.1459339,37.961787 78.2221336,36.8604921 77.7302993,35.8357815 C77.087955,34.4300483 76.4084554,34.3540969 74.6697175,34.3540969 L73.6501532,34.3540969 C73.0071791,34.3540969 72.894454,34.6958781 72.894454,35.3414647 L72.894454,41.4175743 C72.894454,44.4176534 73.4605987,45.670851 75.803896,45.670851 C78.4104286,45.670851 79.7329023,44.6075318 80.4508166,42.2536723 C80.9042361,40.6966692 80.7908812,39.9371555 81.5087955,39.9371555 C81.962215,39.9371555 82,40.126401 82,40.6966692 L82,45.6328753 C82,45.7088267 82,45.7847781 82,45.8607294 C82,46.9234157 81.962215,47 80.9042361,47 C78.5237835,47 75.9928209,46.8101216 73.3100886,46.8101216 C70.2117217,46.8101216 68.4358285,46.9234157 68.0579789,46.9234157 C67.3400647,46.9234157 67,46.8101216 67,46.392389 C67,45.9740236 67.5667744,46.0506079 68.0951341,45.8607294 C69.1537428,45.5189483 69.1915278,44.8733616 69.1915278,43.7720668 L69.1915278,25.772225 C69.1915278,24.8987843 69.1537428,24.3664917 68.5491834,24.1392706 C67.9068391,23.9114164 67.0749402,24.1006619 67.0749402,23.4170996 C67.0749402,23.1139271 67.3022797,23 67.8312692,23 C68.2840589,23 70.3250766,23.1512698 74.0273731,23.1512698 C75.6521265,23.1512698 78.070364,23.0759514 81.2820857,23 L81.2820857,27.9368391" id="Fill-11"></path>
            <path d="M86.9727515,35.8954917 C86.9727515,39.4101117 87.8766328,41.1869474 89.6070509,41.1869474 C91.0228475,41.1869474 92.0453673,39.4856949 92.0453673,36.2734078 C92.0453673,32.6460428 91.1015029,30.7936239 89.4104125,30.7936239 C87.8766328,30.7936239 86.9727515,32.5320381 86.9727515,35.8954917 Z M90.1576385,54.9796264 C92.7532656,54.9796264 94.5230114,53.3167955 94.5230114,51.0499285 C94.5230114,48.7068485 92.4779718,47.5731001 88.4272204,47.5731001 C86.6974577,47.5731001 85.4389719,49.2737227 85.4389719,51.0499285 C85.4389719,53.3167955 87.2480453,54.9796264 90.1576385,54.9796264 Z M95.3089096,35.7449551 C95.3089096,39.0328254 93.3825085,41.2241091 89.6857063,42.017733 C87.7979774,42.4334407 86.4608362,42.4334407 86.4608362,43.4916059 C86.4608362,44.7387291 88.1125989,44.5875627 90.9048645,44.7765207 C94.9949436,45.0788537 97,46.5905182 97,49.6132174 C97,53.2412122 93.8544408,56 89.0564633,56 C85.241678,56 83,54.224424 83,51.8807142 C83,50.3318879 83.8265368,49.4620509 85.2023503,48.366724 C85.6742825,47.9888079 86.0682148,47.7620582 86.0682148,47.4975169 C86.0682148,47.1573924 85.5562995,46.7416846 84.7697458,45.9480608 C84.1018306,45.2678117 83.7078983,44.7765207 83.7078983,44.2858596 C83.7078983,43.7939388 84.1405028,43.4538143 84.8877288,43.0009448 C86.106887,42.2822743 86.854113,41.9421498 86.854113,41.6398169 C86.854113,41.2996923 86.5788192,41.1869474 86.3435086,40.9973594 C84.5344351,39.561908 83.5899153,38.2769931 83.5899153,35.9710749 C83.5899153,32.4942465 86.0682148,30 89.2144295,30 C91.0228475,30 92.1240227,30.7180407 92.9892317,31.0210034 C93.4211808,31.1721699 94.2083899,31.1721699 95.3488927,31.1721699 C95.8208249,31.1721699 96.3320848,31.1721699 96.9213446,31.1721699 L96.9213446,32.5698297 L94.4043729,32.5698297 C95.0336158,33.5524116 95.3089096,34.5727852 95.3089096,35.7449551 L95.3089096,35.7449551 Z" id="Fill-12"></path>
            <path d="M99.972282,35.8954917 C99.972282,39.4101117 100.876861,41.1869474 102.606705,41.1869474 C104.022568,41.1869474 105.045791,39.4856949 105.045791,36.2734078 C105.045791,32.6460428 104.101227,30.7936239 102.410057,30.7936239 C100.876861,30.7936239 99.972282,32.5320381 99.972282,35.8954917 Z M103.157974,54.9796264 C105.753067,54.9796264 107.522895,53.3167955 107.522895,51.0499285 C107.522895,48.7068485 105.47776,47.5731001 101.426819,47.5731001 C99.6969754,47.5731001 98.4384306,49.2737227 98.4384306,51.0499285 C98.4384306,53.3167955 100.247589,54.9796264 103.157974,54.9796264 Z M108.309486,35.7449551 C108.309486,39.0328254 106.382339,41.2241091 102.685364,42.017733 C100.797547,42.4334407 99.4603427,42.4334407 99.4603427,43.4916059 C99.4603427,44.7387291 101.112838,44.5875627 103.905235,44.7765207 C107.99485,45.0788537 110,46.5905182 110,49.6132174 C110,53.2412122 106.854949,56 102.056091,56 C98.2417829,56 96,54.224424 96,51.8807142 C96,50.3318879 96.82592,49.4620509 98.2017979,48.366724 C98.6744077,47.9888079 99.067703,47.7620582 99.067703,47.4975169 C99.067703,47.1573924 98.5557636,46.7416846 97.7698286,45.9480608 C97.1012267,45.2678117 96.7079315,44.7765207 96.7079315,44.2858596 C96.7079315,43.7939388 97.1405562,43.4538143 97.8878172,43.0009448 C99.1070325,42.2822743 99.8542935,41.9421498 99.8542935,41.6398169 C99.8542935,41.2996923 99.5789868,41.1869474 99.3430096,40.9973594 C97.5338515,39.561908 96.5899429,38.2769931 96.5899429,35.9710749 C96.5899429,32.4942465 99.067703,30 102.214065,30 C104.022568,30 105.123794,30.7180407 105.989044,31.0210034 C106.421669,31.1721699 107.208915,31.1721699 108.348815,31.1721699 C108.821425,31.1721699 109.332054,31.1721699 109.921996,31.1721699 L109.921996,32.5698297 L107.404907,32.5698297 C108.034179,33.5524116 108.309486,34.5727852 108.309486,35.7449551 L108.309486,35.7449551 Z" id="Fill-13"></path>
            <path d="M114.314379,30.3044693 C114.921569,30.3044693 115.235948,30.0209497 115.235948,29.4441341 C115.235948,29.0921788 114.95098,28.75 114.519608,28.75 C114.245098,28.75 114.107843,28.8477654 114.107843,29.0628492 L114.107843,30.2946927 C114.177124,30.3044693 114.245098,30.3044693 114.314379,30.3044693 Z M114.627451,28.5055866 C115.618301,28.5055866 116.16732,28.9357542 116.16732,29.4539106 C116.16732,30.0209497 115.755556,30.2946927 114.833987,30.4511173 C115.432026,30.5879888 115.77451,30.8812849 115.882353,31.3798883 C115.971242,31.7513966 115.863399,32.1326816 116.147059,32.1326816 C116.324183,32.1326816 116.421569,31.9469274 116.421569,31.575419 C116.421569,31.5558659 116.421569,31.5363128 116.421569,31.5167598 L116.666667,31.5167598 C116.666667,31.5558659 116.666667,31.5949721 116.666667,31.6243017 C116.666667,32.1815642 116.383007,32.4846369 115.843791,32.4846369 C115.529412,32.4846369 115.303922,32.3868715 115.176471,32.2206704 C114.980392,31.9469274 115.049673,31.5949721 114.99085,31.2625698 C114.901961,30.7541899 114.647712,30.5293296 114.196732,30.5293296 C114.166667,30.5293296 114.137255,30.5293296 114.107843,30.5293296 L114.107843,31.702514 C114.107843,32.0055866 114.215686,32.0935754 114.579085,32.1424581 L114.579085,32.3868715 L112.696732,32.3868715 L112.696732,32.1424581 C113.079085,32.122905 113.205882,32.0251397 113.205882,31.702514 L113.205882,29.2094972 C113.205882,28.8868715 113.079085,28.7891061 112.696732,28.7597765 L112.696732,28.5055866 L114.627451,28.5055866 Z M112.383007,28.3882682 C111.814379,28.9650838 111.510458,29.7081006 111.510458,30.5097765 C111.510458,31.3212291 111.814379,32.0642458 112.383007,32.6312849 C112.960784,33.2081006 113.686928,33.5013966 114.500654,33.5013966 C115.303922,33.5013966 116.04902,33.198324 116.608497,32.6312849 C117.177124,32.0544693 117.490196,31.2918994 117.490196,30.5097765 C117.490196,29.7178771 117.166667,28.9259777 116.608497,28.3784916 C116.04902,27.8212291 115.284314,27.4986034 114.510458,27.4986034 C113.706536,27.4986034 112.94183,27.8212291 112.383007,28.3882682 Z M117.029412,28.075419 C117.647059,28.7108939 118,29.6005587 118,30.5684358 C118,31.4385475 117.598039,32.3673184 116.892157,33.051676 C116.254902,33.6675978 115.411765,34 114.500654,34 C113.803922,34 113.147712,33.8044693 112.578431,33.4231844 C111.579085,32.7583799 111,31.702514 111,30.5097765 C111,29.5810056 111.363399,28.7011173 112.020261,28.0363128 C112.666667,27.3812849 113.569281,27 114.510458,27 C115.441176,27 116.372549,27.400838 117.029412,28.075419 L117.029412,28.075419 Z" id="Fill-14"></path>
        </g>
    </g>
</svg>